TITLE ""
FILE "Disc6Track29.mp3" MP3
  TRACK 01 AUDIO
    TITLE "Disc6Track29_01"
    INDEX 01 00:00:00
  TRACK 02 AUDIO
    TITLE "Disc6Track29_02"
    INDEX 01 00:01:20
  TRACK 03 AUDIO
    TITLE "Disc6Track29_03"
    INDEX 01 00:03:18
  TRACK 04 AUDIO
    TITLE "Disc6Track29_04"
    INDEX 01 00:04:47
  TRACK 05 AUDIO
    TITLE "Disc6Track29_05"
    INDEX 01 00:06:38
  TRACK 06 AUDIO
    TITLE "Disc6Track29_06"
    INDEX 01 00:06:68
  TRACK 07 AUDIO
    TITLE "Disc6Track29_07"
    INDEX 01 00:08:24
  TRACK 08 AUDIO
    TITLE "Disc6Track29_08"
    INDEX 01 00:09:54
  TRACK 09 AUDIO
    TITLE "Disc6Track29_09"
    INDEX 01 00:11:06
  TRACK 10 AUDIO
    TITLE "Disc6Track29_10"
    INDEX 01 00:14:59
  TRACK 11 AUDIO
    TITLE "Disc6Track29_11"
    INDEX 01 00:15:10
  TRACK 12 AUDIO
    TITLE "Disc6Track29_12"
    INDEX 01 00:16:29
  TRACK 13 AUDIO
    TITLE "Disc6Track29_13"
    INDEX 01 00:17:36
  TRACK 14 AUDIO
    TITLE "Disc6Track29_14"
    INDEX 01 00:18:51
  TRACK 15 AUDIO
    TITLE "Disc6Track29_15"
    INDEX 01 00:22:02
  TRACK 16 AUDIO
    TITLE "Disc6Track29_16"
    INDEX 01 00:22:41
  TRACK 17 AUDIO
    TITLE "Disc6Track29_17"
    INDEX 01 00:23:58
  TRACK 18 AUDIO
    TITLE "Disc6Track29_18"
    INDEX 01 00:26:10
  TRACK 19 AUDIO
    TITLE "Disc6Track29_19"
    INDEX 01 00:27:27
  TRACK 20 AUDIO
    TITLE "Disc6Track29_20"
    INDEX 01 00:30:70
  TRACK 21 AUDIO
    TITLE "Disc6Track29_21"
    INDEX 01 00:31:25
  TRACK 22 AUDIO
    TITLE "Disc6Track29_22"
    INDEX 01 00:33:69
  TRACK 23 AUDIO
    TITLE "Disc6Track29_23"
    INDEX 01 00:37:37
  TRACK 24 AUDIO
    TITLE "Disc6Track29_24"
    INDEX 01 00:40:14
  TRACK 25 AUDIO
    TITLE "Disc6Track29_25"
    INDEX 01 00:40:47
  TRACK 26 AUDIO
    TITLE "Disc6Track29_26"
    INDEX 01 00:41:62
  TRACK 27 AUDIO
    TITLE "Disc6Track29_27"
    INDEX 01 00:44:17
  TRACK 28 AUDIO
    TITLE "Disc6Track29_28"
    INDEX 01 00:45:31
  TRACK 29 AUDIO
    TITLE "Disc6Track29_29"
    INDEX 01 00:47:10
  TRACK 30 AUDIO
    TITLE "Disc6Track29_30"
    INDEX 01 00:47:43
  TRACK 31 AUDIO
    TITLE "Disc6Track29_31"
    INDEX 01 00:48:62
  TRACK 32 AUDIO
    TITLE "Disc6Track29_32"
    INDEX 01 00:51:16
  TRACK 33 AUDIO
    TITLE "Disc6Track29_33"
    INDEX 01 00:52:33
  TRACK 34 AUDIO
    TITLE "Disc6Track29_34"
    INDEX 01 00:57:49
  TRACK 35 AUDIO
    TITLE "Disc6Track29_35"
    INDEX 01 00:58:06
  TRACK 36 AUDIO
    TITLE "Disc6Track29_36"
    INDEX 01 00:59:15
  TRACK 37 AUDIO
    TITLE "Disc6Track29_37"
    INDEX 01 01:00:20
  TRACK 38 AUDIO
    TITLE "Disc6Track29_38"
    INDEX 01 01:01:28
  TRACK 39 AUDIO
    TITLE "Disc6Track29_39"
    INDEX 01 01:04:71
  TRACK 40 AUDIO
    TITLE "Disc6Track29_40"
    INDEX 01 01:05:27
  TRACK 41 AUDIO
    TITLE "Disc6Track29_41"
    INDEX 01 01:06:74
  TRACK 42 AUDIO
    TITLE "Disc6Track29_42"
    INDEX 01 01:08:06
  TRACK 43 AUDIO
    TITLE "Disc6Track29_43"
    INDEX 01 01:09:53
  TRACK 44 AUDIO
    TITLE "Disc6Track29_44"
    INDEX 01 01:12:31
